<mxfile host="app.diagrams.net" modified="2024-04-08T17:13:00.498Z" agent="Mozilla/5.0 (Windows NT 10.0; Win64; x64) AppleWebKit/537.36 (KHTML, like Gecko) Chrome/122.0.0.0 Safari/537.36" etag="ezX9KMNFDtdSVyEE5blu" version="24.2.2" type="device">
  <diagram name="Page-1" id="zWaF-NW0NA_eyw-OmViZ">
    <mxGraphModel dx="2759" dy="2100" grid="1" gridSize="10" guides="1" tooltips="1" connect="1" arrows="1" fold="1" page="1" pageScale="1" pageWidth="850" pageHeight="1100" math="0" shadow="0">
      <root>
        <mxCell id="0" />
        <mxCell id="1" parent="0" />
        <mxCell id="h81LgXNhhL_7eHp9-fu3-7" style="edgeStyle=orthogonalEdgeStyle;rounded=0;orthogonalLoop=1;jettySize=auto;html=1;endArrow=none;endFill=0;" edge="1" parent="1" source="h81LgXNhhL_7eHp9-fu3-1" target="h81LgXNhhL_7eHp9-fu3-2">
          <mxGeometry relative="1" as="geometry" />
        </mxCell>
        <mxCell id="h81LgXNhhL_7eHp9-fu3-8" style="edgeStyle=orthogonalEdgeStyle;rounded=0;orthogonalLoop=1;jettySize=auto;html=1;endArrow=none;endFill=0;" edge="1" parent="1" source="h81LgXNhhL_7eHp9-fu3-1" target="h81LgXNhhL_7eHp9-fu3-5">
          <mxGeometry relative="1" as="geometry">
            <Array as="points">
              <mxPoint x="540" y="430" />
            </Array>
          </mxGeometry>
        </mxCell>
        <mxCell id="h81LgXNhhL_7eHp9-fu3-12" style="edgeStyle=orthogonalEdgeStyle;rounded=0;orthogonalLoop=1;jettySize=auto;html=1;endArrow=none;endFill=0;" edge="1" parent="1" source="h81LgXNhhL_7eHp9-fu3-1" target="h81LgXNhhL_7eHp9-fu3-11">
          <mxGeometry relative="1" as="geometry" />
        </mxCell>
        <mxCell id="h81LgXNhhL_7eHp9-fu3-16" value="" style="edgeStyle=orthogonalEdgeStyle;rounded=0;orthogonalLoop=1;jettySize=auto;html=1;endArrow=none;endFill=0;" edge="1" parent="1" source="h81LgXNhhL_7eHp9-fu3-1" target="h81LgXNhhL_7eHp9-fu3-4">
          <mxGeometry relative="1" as="geometry">
            <Array as="points">
              <mxPoint x="270" y="270" />
              <mxPoint x="270" y="220" />
            </Array>
          </mxGeometry>
        </mxCell>
        <mxCell id="h81LgXNhhL_7eHp9-fu3-48" style="edgeStyle=orthogonalEdgeStyle;rounded=0;orthogonalLoop=1;jettySize=auto;html=1;endArrow=none;endFill=0;" edge="1" parent="1" source="h81LgXNhhL_7eHp9-fu3-1" target="h81LgXNhhL_7eHp9-fu3-40">
          <mxGeometry relative="1" as="geometry">
            <Array as="points">
              <mxPoint x="570" y="340" />
              <mxPoint x="625" y="340" />
            </Array>
          </mxGeometry>
        </mxCell>
        <mxCell id="h81LgXNhhL_7eHp9-fu3-49" style="edgeStyle=orthogonalEdgeStyle;rounded=0;orthogonalLoop=1;jettySize=auto;html=1;endArrow=none;endFill=0;" edge="1" parent="1" source="h81LgXNhhL_7eHp9-fu3-1" target="h81LgXNhhL_7eHp9-fu3-32">
          <mxGeometry relative="1" as="geometry">
            <Array as="points">
              <mxPoint x="610" y="310" />
              <mxPoint x="610" y="310" />
            </Array>
          </mxGeometry>
        </mxCell>
        <mxCell id="h81LgXNhhL_7eHp9-fu3-50" style="edgeStyle=orthogonalEdgeStyle;rounded=0;orthogonalLoop=1;jettySize=auto;html=1;endArrow=none;endFill=0;" edge="1" parent="1" source="h81LgXNhhL_7eHp9-fu3-1" target="h81LgXNhhL_7eHp9-fu3-31">
          <mxGeometry relative="1" as="geometry">
            <Array as="points">
              <mxPoint x="580" y="250" />
            </Array>
          </mxGeometry>
        </mxCell>
        <mxCell id="h81LgXNhhL_7eHp9-fu3-51" style="edgeStyle=orthogonalEdgeStyle;rounded=0;orthogonalLoop=1;jettySize=auto;html=1;endArrow=none;endFill=0;" edge="1" parent="1" source="h81LgXNhhL_7eHp9-fu3-1" target="h81LgXNhhL_7eHp9-fu3-38">
          <mxGeometry relative="1" as="geometry">
            <Array as="points">
              <mxPoint x="560" y="185" />
            </Array>
          </mxGeometry>
        </mxCell>
        <mxCell id="h81LgXNhhL_7eHp9-fu3-1" value="Utilizador" style="rounded=0;whiteSpace=wrap;html=1;" vertex="1" parent="1">
          <mxGeometry x="480" y="260" width="120" height="60" as="geometry" />
        </mxCell>
        <mxCell id="h81LgXNhhL_7eHp9-fu3-18" style="edgeStyle=orthogonalEdgeStyle;rounded=0;orthogonalLoop=1;jettySize=auto;html=1;endArrow=none;endFill=0;" edge="1" parent="1" source="h81LgXNhhL_7eHp9-fu3-2" target="h81LgXNhhL_7eHp9-fu3-5">
          <mxGeometry relative="1" as="geometry" />
        </mxCell>
        <mxCell id="h81LgXNhhL_7eHp9-fu3-20" style="edgeStyle=orthogonalEdgeStyle;rounded=0;orthogonalLoop=1;jettySize=auto;html=1;endArrow=none;endFill=0;" edge="1" parent="1" source="h81LgXNhhL_7eHp9-fu3-2" target="h81LgXNhhL_7eHp9-fu3-4">
          <mxGeometry relative="1" as="geometry">
            <Array as="points">
              <mxPoint x="310" y="100" />
              <mxPoint x="310" y="200" />
            </Array>
          </mxGeometry>
        </mxCell>
        <mxCell id="h81LgXNhhL_7eHp9-fu3-59" style="edgeStyle=orthogonalEdgeStyle;rounded=0;orthogonalLoop=1;jettySize=auto;html=1;endArrow=none;endFill=0;" edge="1" parent="1" source="h81LgXNhhL_7eHp9-fu3-2" target="h81LgXNhhL_7eHp9-fu3-24">
          <mxGeometry relative="1" as="geometry" />
        </mxCell>
        <mxCell id="h81LgXNhhL_7eHp9-fu3-2" value="Tarefa" style="rounded=0;whiteSpace=wrap;html=1;" vertex="1" parent="1">
          <mxGeometry x="360" y="50" width="120" height="60" as="geometry" />
        </mxCell>
        <mxCell id="h81LgXNhhL_7eHp9-fu3-9" style="edgeStyle=orthogonalEdgeStyle;rounded=0;orthogonalLoop=1;jettySize=auto;html=1;endArrow=none;endFill=0;" edge="1" parent="1" source="h81LgXNhhL_7eHp9-fu3-3" target="h81LgXNhhL_7eHp9-fu3-1">
          <mxGeometry relative="1" as="geometry">
            <Array as="points">
              <mxPoint x="560" y="450" />
              <mxPoint x="560" y="450" />
            </Array>
          </mxGeometry>
        </mxCell>
        <mxCell id="h81LgXNhhL_7eHp9-fu3-19" style="edgeStyle=orthogonalEdgeStyle;rounded=0;orthogonalLoop=1;jettySize=auto;html=1;endArrow=none;endFill=0;" edge="1" parent="1" source="h81LgXNhhL_7eHp9-fu3-3" target="h81LgXNhhL_7eHp9-fu3-4">
          <mxGeometry relative="1" as="geometry">
            <Array as="points">
              <mxPoint x="200" y="510" />
            </Array>
          </mxGeometry>
        </mxCell>
        <mxCell id="h81LgXNhhL_7eHp9-fu3-3" value="Evento" style="rounded=0;whiteSpace=wrap;html=1;" vertex="1" parent="1">
          <mxGeometry x="515" y="490" width="120" height="60" as="geometry" />
        </mxCell>
        <mxCell id="h81LgXNhhL_7eHp9-fu3-70" style="edgeStyle=orthogonalEdgeStyle;rounded=0;orthogonalLoop=1;jettySize=auto;html=1;endArrow=none;endFill=0;" edge="1" parent="1" source="h81LgXNhhL_7eHp9-fu3-4" target="h81LgXNhhL_7eHp9-fu3-66">
          <mxGeometry relative="1" as="geometry" />
        </mxCell>
        <mxCell id="h81LgXNhhL_7eHp9-fu3-4" value="Projeto" style="rounded=0;whiteSpace=wrap;html=1;" vertex="1" parent="1">
          <mxGeometry x="100" y="170" width="120" height="60" as="geometry" />
        </mxCell>
        <mxCell id="h81LgXNhhL_7eHp9-fu3-15" style="edgeStyle=orthogonalEdgeStyle;rounded=0;orthogonalLoop=1;jettySize=auto;html=1;endArrow=none;endFill=0;" edge="1" parent="1" source="h81LgXNhhL_7eHp9-fu3-5" target="h81LgXNhhL_7eHp9-fu3-3">
          <mxGeometry relative="1" as="geometry">
            <Array as="points">
              <mxPoint x="90" y="440" />
              <mxPoint x="90" y="540" />
            </Array>
          </mxGeometry>
        </mxCell>
        <mxCell id="h81LgXNhhL_7eHp9-fu3-17" style="edgeStyle=orthogonalEdgeStyle;rounded=0;orthogonalLoop=1;jettySize=auto;html=1;endArrow=none;endFill=0;" edge="1" parent="1" source="h81LgXNhhL_7eHp9-fu3-5" target="h81LgXNhhL_7eHp9-fu3-4">
          <mxGeometry relative="1" as="geometry">
            <Array as="points">
              <mxPoint x="120" y="420" />
              <mxPoint x="120" y="270" />
              <mxPoint x="160" y="270" />
            </Array>
          </mxGeometry>
        </mxCell>
        <mxCell id="h81LgXNhhL_7eHp9-fu3-5" value="Notificação" style="rounded=0;whiteSpace=wrap;html=1;" vertex="1" parent="1">
          <mxGeometry x="-130" y="390" width="120" height="60" as="geometry" />
        </mxCell>
        <mxCell id="h81LgXNhhL_7eHp9-fu3-58" style="edgeStyle=orthogonalEdgeStyle;rounded=0;orthogonalLoop=1;jettySize=auto;html=1;endArrow=none;endFill=0;" edge="1" parent="1" source="h81LgXNhhL_7eHp9-fu3-10" target="h81LgXNhhL_7eHp9-fu3-42">
          <mxGeometry relative="1" as="geometry" />
        </mxCell>
        <mxCell id="h81LgXNhhL_7eHp9-fu3-10" value="Cosmético" style="rounded=0;whiteSpace=wrap;html=1;" vertex="1" parent="1">
          <mxGeometry x="860" y="420" width="120" height="60" as="geometry" />
        </mxCell>
        <mxCell id="h81LgXNhhL_7eHp9-fu3-13" style="edgeStyle=orthogonalEdgeStyle;rounded=0;orthogonalLoop=1;jettySize=auto;html=1;endArrow=none;endFill=0;" edge="1" parent="1" source="h81LgXNhhL_7eHp9-fu3-11" target="h81LgXNhhL_7eHp9-fu3-10">
          <mxGeometry relative="1" as="geometry" />
        </mxCell>
        <mxCell id="h81LgXNhhL_7eHp9-fu3-11" value="Cosméticos" style="rounded=0;whiteSpace=wrap;html=1;" vertex="1" parent="1">
          <mxGeometry x="860" y="260" width="120" height="60" as="geometry" />
        </mxCell>
        <mxCell id="h81LgXNhhL_7eHp9-fu3-60" style="edgeStyle=orthogonalEdgeStyle;rounded=0;orthogonalLoop=1;jettySize=auto;html=1;endArrow=none;endFill=0;" edge="1" parent="1" source="h81LgXNhhL_7eHp9-fu3-21" target="h81LgXNhhL_7eHp9-fu3-1">
          <mxGeometry relative="1" as="geometry">
            <Array as="points">
              <mxPoint x="490" y="260" />
              <mxPoint x="490" y="260" />
            </Array>
          </mxGeometry>
        </mxCell>
        <mxCell id="h81LgXNhhL_7eHp9-fu3-21" value="&lt;u&gt;user_ID&lt;/u&gt;" style="ellipse;whiteSpace=wrap;html=1;" vertex="1" parent="1">
          <mxGeometry x="425" y="210" width="90" height="30" as="geometry" />
        </mxCell>
        <mxCell id="h81LgXNhhL_7eHp9-fu3-61" style="edgeStyle=orthogonalEdgeStyle;rounded=0;orthogonalLoop=1;jettySize=auto;html=1;endArrow=none;endFill=0;" edge="1" parent="1" source="h81LgXNhhL_7eHp9-fu3-22" target="h81LgXNhhL_7eHp9-fu3-4">
          <mxGeometry relative="1" as="geometry">
            <Array as="points">
              <mxPoint x="165" y="180" />
            </Array>
          </mxGeometry>
        </mxCell>
        <mxCell id="h81LgXNhhL_7eHp9-fu3-22" value="&lt;u&gt;project_ID&lt;/u&gt;" style="ellipse;whiteSpace=wrap;html=1;" vertex="1" parent="1">
          <mxGeometry x="-20" y="140" width="90" height="30" as="geometry" />
        </mxCell>
        <mxCell id="h81LgXNhhL_7eHp9-fu3-91" style="edgeStyle=orthogonalEdgeStyle;rounded=0;orthogonalLoop=1;jettySize=auto;html=1;endArrow=none;endFill=0;" edge="1" parent="1" source="h81LgXNhhL_7eHp9-fu3-23" target="h81LgXNhhL_7eHp9-fu3-3">
          <mxGeometry relative="1" as="geometry" />
        </mxCell>
        <mxCell id="h81LgXNhhL_7eHp9-fu3-23" value="&lt;u&gt;event_ID&lt;/u&gt;" style="ellipse;whiteSpace=wrap;html=1;" vertex="1" parent="1">
          <mxGeometry x="520" y="580" width="90" height="30" as="geometry" />
        </mxCell>
        <mxCell id="h81LgXNhhL_7eHp9-fu3-24" value="&lt;u&gt;task_ID&lt;/u&gt;" style="ellipse;whiteSpace=wrap;html=1;" vertex="1" parent="1">
          <mxGeometry x="500" y="65" width="90" height="30" as="geometry" />
        </mxCell>
        <mxCell id="h81LgXNhhL_7eHp9-fu3-47" style="edgeStyle=orthogonalEdgeStyle;rounded=0;orthogonalLoop=1;jettySize=auto;html=1;endArrow=none;endFill=0;" edge="1" parent="1" source="h81LgXNhhL_7eHp9-fu3-27" target="h81LgXNhhL_7eHp9-fu3-1">
          <mxGeometry relative="1" as="geometry">
            <Array as="points">
              <mxPoint x="510" y="310" />
              <mxPoint x="510" y="310" />
            </Array>
          </mxGeometry>
        </mxCell>
        <mxCell id="h81LgXNhhL_7eHp9-fu3-27" value="nome" style="ellipse;whiteSpace=wrap;html=1;" vertex="1" parent="1">
          <mxGeometry x="440" y="340" width="90" height="30" as="geometry" />
        </mxCell>
        <mxCell id="h81LgXNhhL_7eHp9-fu3-45" style="edgeStyle=orthogonalEdgeStyle;rounded=0;orthogonalLoop=1;jettySize=auto;html=1;endArrow=none;endFill=0;" edge="1" parent="1" source="h81LgXNhhL_7eHp9-fu3-28" target="h81LgXNhhL_7eHp9-fu3-1">
          <mxGeometry relative="1" as="geometry">
            <Array as="points">
              <mxPoint x="500" y="300" />
              <mxPoint x="500" y="300" />
            </Array>
          </mxGeometry>
        </mxCell>
        <mxCell id="h81LgXNhhL_7eHp9-fu3-28" value="mail" style="ellipse;whiteSpace=wrap;html=1;" vertex="1" parent="1">
          <mxGeometry x="340" y="280" width="90" height="30" as="geometry" />
        </mxCell>
        <mxCell id="h81LgXNhhL_7eHp9-fu3-46" style="edgeStyle=orthogonalEdgeStyle;rounded=0;orthogonalLoop=1;jettySize=auto;html=1;endArrow=none;endFill=0;" edge="1" parent="1" source="h81LgXNhhL_7eHp9-fu3-29" target="h81LgXNhhL_7eHp9-fu3-1">
          <mxGeometry relative="1" as="geometry">
            <mxPoint x="430" y="340" as="sourcePoint" />
            <mxPoint x="525" y="310.0000000000001" as="targetPoint" />
            <Array as="points">
              <mxPoint x="430" y="310" />
            </Array>
          </mxGeometry>
        </mxCell>
        <mxCell id="h81LgXNhhL_7eHp9-fu3-29" value="password" style="ellipse;whiteSpace=wrap;html=1;" vertex="1" parent="1">
          <mxGeometry x="340" y="340" width="90" height="30" as="geometry" />
        </mxCell>
        <mxCell id="h81LgXNhhL_7eHp9-fu3-30" value="pontos xp&lt;div&gt;season&lt;/div&gt;" style="ellipse;whiteSpace=wrap;html=1;" vertex="1" parent="1">
          <mxGeometry x="1010" y="130" width="90" height="30" as="geometry" />
        </mxCell>
        <mxCell id="h81LgXNhhL_7eHp9-fu3-31" value="streak de atividade" style="ellipse;whiteSpace=wrap;html=1;" vertex="1" parent="1">
          <mxGeometry x="610" y="230" width="90" height="40" as="geometry" />
        </mxCell>
        <mxCell id="h81LgXNhhL_7eHp9-fu3-32" value="gemas" style="ellipse;whiteSpace=wrap;html=1;" vertex="1" parent="1">
          <mxGeometry x="620" y="300" width="90" height="30" as="geometry" />
        </mxCell>
        <mxCell id="h81LgXNhhL_7eHp9-fu3-55" style="edgeStyle=orthogonalEdgeStyle;rounded=0;orthogonalLoop=1;jettySize=auto;html=1;endArrow=none;endFill=0;" edge="1" parent="1" source="h81LgXNhhL_7eHp9-fu3-33" target="h81LgXNhhL_7eHp9-fu3-30">
          <mxGeometry relative="1" as="geometry">
            <Array as="points">
              <mxPoint x="910" y="135" />
              <mxPoint x="910" y="135" />
            </Array>
          </mxGeometry>
        </mxCell>
        <mxCell id="h81LgXNhhL_7eHp9-fu3-33" value="Leaderboard" style="rounded=0;whiteSpace=wrap;html=1;" vertex="1" parent="1">
          <mxGeometry x="875" y="115" width="120" height="60" as="geometry" />
        </mxCell>
        <mxCell id="h81LgXNhhL_7eHp9-fu3-38" value="pontos xp" style="ellipse;whiteSpace=wrap;html=1;" vertex="1" parent="1">
          <mxGeometry x="620" y="170" width="90" height="30" as="geometry" />
        </mxCell>
        <mxCell id="h81LgXNhhL_7eHp9-fu3-53" style="edgeStyle=orthogonalEdgeStyle;rounded=0;orthogonalLoop=1;jettySize=auto;html=1;endArrow=none;endFill=0;" edge="1" parent="1" source="h81LgXNhhL_7eHp9-fu3-39" target="h81LgXNhhL_7eHp9-fu3-33">
          <mxGeometry relative="1" as="geometry">
            <Array as="points">
              <mxPoint x="945" y="90" />
              <mxPoint x="940" y="90" />
            </Array>
          </mxGeometry>
        </mxCell>
        <mxCell id="h81LgXNhhL_7eHp9-fu3-39" value="&lt;u&gt;liga&lt;/u&gt;" style="ellipse;whiteSpace=wrap;html=1;" vertex="1" parent="1">
          <mxGeometry x="890" y="50" width="90" height="30" as="geometry" />
        </mxCell>
        <mxCell id="h81LgXNhhL_7eHp9-fu3-40" value="rank" style="ellipse;whiteSpace=wrap;html=1;" vertex="1" parent="1">
          <mxGeometry x="580" y="350" width="90" height="30" as="geometry" />
        </mxCell>
        <mxCell id="h81LgXNhhL_7eHp9-fu3-42" value="&lt;u&gt;nome&lt;/u&gt;" style="ellipse;whiteSpace=wrap;html=1;" vertex="1" parent="1">
          <mxGeometry x="1020" y="435" width="90" height="30" as="geometry" />
        </mxCell>
        <mxCell id="h81LgXNhhL_7eHp9-fu3-57" style="edgeStyle=orthogonalEdgeStyle;rounded=0;orthogonalLoop=1;jettySize=auto;html=1;endArrow=none;endFill=0;" edge="1" parent="1" source="h81LgXNhhL_7eHp9-fu3-43" target="h81LgXNhhL_7eHp9-fu3-10">
          <mxGeometry relative="1" as="geometry" />
        </mxCell>
        <mxCell id="h81LgXNhhL_7eHp9-fu3-43" value="tipo" style="ellipse;whiteSpace=wrap;html=1;" vertex="1" parent="1">
          <mxGeometry x="875" y="510" width="90" height="30" as="geometry" />
        </mxCell>
        <mxCell id="h81LgXNhhL_7eHp9-fu3-56" style="edgeStyle=orthogonalEdgeStyle;rounded=0;orthogonalLoop=1;jettySize=auto;html=1;endArrow=none;endFill=0;" edge="1" parent="1" source="h81LgXNhhL_7eHp9-fu3-44" target="h81LgXNhhL_7eHp9-fu3-10">
          <mxGeometry relative="1" as="geometry">
            <Array as="points">
              <mxPoint x="900" y="470" />
              <mxPoint x="900" y="470" />
            </Array>
          </mxGeometry>
        </mxCell>
        <mxCell id="h81LgXNhhL_7eHp9-fu3-44" value="custo" style="ellipse;whiteSpace=wrap;html=1;" vertex="1" parent="1">
          <mxGeometry x="730" y="440" width="90" height="30" as="geometry" />
        </mxCell>
        <mxCell id="h81LgXNhhL_7eHp9-fu3-52" style="edgeStyle=orthogonalEdgeStyle;rounded=0;orthogonalLoop=1;jettySize=auto;html=1;entryX=0.579;entryY=-0.007;entryDx=0;entryDy=0;entryPerimeter=0;endArrow=none;endFill=0;" edge="1" parent="1" source="h81LgXNhhL_7eHp9-fu3-33" target="h81LgXNhhL_7eHp9-fu3-1">
          <mxGeometry relative="1" as="geometry">
            <Array as="points">
              <mxPoint x="550" y="150" />
            </Array>
          </mxGeometry>
        </mxCell>
        <mxCell id="h81LgXNhhL_7eHp9-fu3-68" style="edgeStyle=orthogonalEdgeStyle;rounded=0;orthogonalLoop=1;jettySize=auto;html=1;endArrow=none;endFill=0;" edge="1" parent="1" source="h81LgXNhhL_7eHp9-fu3-62" target="h81LgXNhhL_7eHp9-fu3-4">
          <mxGeometry relative="1" as="geometry" />
        </mxCell>
        <mxCell id="h81LgXNhhL_7eHp9-fu3-62" value="descrição" style="ellipse;whiteSpace=wrap;html=1;" vertex="1" parent="1">
          <mxGeometry x="-10" y="190" width="90" height="30" as="geometry" />
        </mxCell>
        <mxCell id="h81LgXNhhL_7eHp9-fu3-64" style="edgeStyle=orthogonalEdgeStyle;rounded=0;orthogonalLoop=1;jettySize=auto;html=1;endArrow=none;endFill=0;" edge="1" parent="1" source="h81LgXNhhL_7eHp9-fu3-63" target="h81LgXNhhL_7eHp9-fu3-2">
          <mxGeometry relative="1" as="geometry">
            <Array as="points">
              <mxPoint x="400" />
              <mxPoint x="400" />
            </Array>
          </mxGeometry>
        </mxCell>
        <mxCell id="h81LgXNhhL_7eHp9-fu3-63" value="descrição" style="ellipse;whiteSpace=wrap;html=1;" vertex="1" parent="1">
          <mxGeometry x="350" y="-70" width="90" height="30" as="geometry" />
        </mxCell>
        <mxCell id="h81LgXNhhL_7eHp9-fu3-72" style="edgeStyle=orthogonalEdgeStyle;rounded=0;orthogonalLoop=1;jettySize=auto;html=1;endArrow=none;endFill=0;" edge="1" parent="1" source="h81LgXNhhL_7eHp9-fu3-65" target="h81LgXNhhL_7eHp9-fu3-2">
          <mxGeometry relative="1" as="geometry">
            <Array as="points">
              <mxPoint x="535" y="60" />
            </Array>
          </mxGeometry>
        </mxCell>
        <mxCell id="h81LgXNhhL_7eHp9-fu3-65" value="data" style="ellipse;whiteSpace=wrap;html=1;" vertex="1" parent="1">
          <mxGeometry x="490" y="10" width="90" height="30" as="geometry" />
        </mxCell>
        <mxCell id="h81LgXNhhL_7eHp9-fu3-66" value="data inicio" style="ellipse;whiteSpace=wrap;html=1;" vertex="1" parent="1">
          <mxGeometry x="100" y="115" width="90" height="30" as="geometry" />
        </mxCell>
        <mxCell id="h81LgXNhhL_7eHp9-fu3-67" value="data fim" style="ellipse;whiteSpace=wrap;html=1;" vertex="1" parent="1">
          <mxGeometry x="200" y="110" width="90" height="30" as="geometry" />
        </mxCell>
        <mxCell id="h81LgXNhhL_7eHp9-fu3-71" style="edgeStyle=orthogonalEdgeStyle;rounded=0;orthogonalLoop=1;jettySize=auto;html=1;entryX=0.872;entryY=0.03;entryDx=0;entryDy=0;entryPerimeter=0;endArrow=none;endFill=0;" edge="1" parent="1" source="h81LgXNhhL_7eHp9-fu3-67" target="h81LgXNhhL_7eHp9-fu3-4">
          <mxGeometry relative="1" as="geometry" />
        </mxCell>
        <mxCell id="h81LgXNhhL_7eHp9-fu3-74" style="edgeStyle=orthogonalEdgeStyle;rounded=0;orthogonalLoop=1;jettySize=auto;html=1;endArrow=none;endFill=0;" edge="1" parent="1" source="h81LgXNhhL_7eHp9-fu3-73" target="h81LgXNhhL_7eHp9-fu3-2">
          <mxGeometry relative="1" as="geometry">
            <Array as="points">
              <mxPoint x="305" y="60" />
            </Array>
          </mxGeometry>
        </mxCell>
        <mxCell id="h81LgXNhhL_7eHp9-fu3-73" value="duração" style="ellipse;whiteSpace=wrap;html=1;" vertex="1" parent="1">
          <mxGeometry x="260" y="10" width="90" height="30" as="geometry" />
        </mxCell>
        <mxCell id="h81LgXNhhL_7eHp9-fu3-79" style="edgeStyle=orthogonalEdgeStyle;rounded=0;orthogonalLoop=1;jettySize=auto;html=1;endArrow=none;endFill=0;" edge="1" parent="1" source="h81LgXNhhL_7eHp9-fu3-75" target="h81LgXNhhL_7eHp9-fu3-2">
          <mxGeometry relative="1" as="geometry">
            <Array as="points">
              <mxPoint x="370" y="40" />
              <mxPoint x="370" y="40" />
            </Array>
          </mxGeometry>
        </mxCell>
        <mxCell id="h81LgXNhhL_7eHp9-fu3-75" value="prioridade" style="ellipse;whiteSpace=wrap;html=1;" vertex="1" parent="1">
          <mxGeometry x="290" y="-30" width="90" height="30" as="geometry" />
        </mxCell>
        <mxCell id="h81LgXNhhL_7eHp9-fu3-80" style="edgeStyle=orthogonalEdgeStyle;rounded=0;orthogonalLoop=1;jettySize=auto;html=1;endArrow=none;endFill=0;" edge="1" parent="1" source="h81LgXNhhL_7eHp9-fu3-76" target="h81LgXNhhL_7eHp9-fu3-2">
          <mxGeometry relative="1" as="geometry">
            <Array as="points">
              <mxPoint x="440" y="15" />
              <mxPoint x="420" y="15" />
            </Array>
          </mxGeometry>
        </mxCell>
        <mxCell id="h81LgXNhhL_7eHp9-fu3-76" value="dificuldade" style="ellipse;whiteSpace=wrap;html=1;" vertex="1" parent="1">
          <mxGeometry x="440" y="-50" width="90" height="30" as="geometry" />
        </mxCell>
        <mxCell id="h81LgXNhhL_7eHp9-fu3-78" style="edgeStyle=orthogonalEdgeStyle;rounded=0;orthogonalLoop=1;jettySize=auto;html=1;endArrow=none;endFill=0;" edge="1" parent="1" source="h81LgXNhhL_7eHp9-fu3-77" target="h81LgXNhhL_7eHp9-fu3-2">
          <mxGeometry relative="1" as="geometry">
            <mxPoint x="540" y="-10" as="targetPoint" />
            <Array as="points">
              <mxPoint x="480" y="-10" />
            </Array>
          </mxGeometry>
        </mxCell>
        <mxCell id="h81LgXNhhL_7eHp9-fu3-77" value="repetível" style="ellipse;whiteSpace=wrap;html=1;" vertex="1" parent="1">
          <mxGeometry x="560" y="-40" width="90" height="30" as="geometry" />
        </mxCell>
        <mxCell id="h81LgXNhhL_7eHp9-fu3-84" style="edgeStyle=orthogonalEdgeStyle;rounded=0;orthogonalLoop=1;jettySize=auto;html=1;endArrow=none;endFill=0;" edge="1" parent="1" source="h81LgXNhhL_7eHp9-fu3-83" target="h81LgXNhhL_7eHp9-fu3-5">
          <mxGeometry relative="1" as="geometry">
            <Array as="points">
              <mxPoint x="-195" y="400" />
            </Array>
          </mxGeometry>
        </mxCell>
        <mxCell id="h81LgXNhhL_7eHp9-fu3-83" value="tipo" style="ellipse;whiteSpace=wrap;html=1;" vertex="1" parent="1">
          <mxGeometry x="-240" y="350" width="90" height="30" as="geometry" />
        </mxCell>
        <mxCell id="h81LgXNhhL_7eHp9-fu3-86" style="edgeStyle=orthogonalEdgeStyle;rounded=0;orthogonalLoop=1;jettySize=auto;html=1;endArrow=none;endFill=0;" edge="1" parent="1" source="h81LgXNhhL_7eHp9-fu3-85" target="h81LgXNhhL_7eHp9-fu3-5">
          <mxGeometry relative="1" as="geometry">
            <Array as="points">
              <mxPoint x="-5" y="400" />
            </Array>
          </mxGeometry>
        </mxCell>
        <mxCell id="h81LgXNhhL_7eHp9-fu3-85" value="data" style="ellipse;whiteSpace=wrap;html=1;" vertex="1" parent="1">
          <mxGeometry x="-50" y="330" width="90" height="30" as="geometry" />
        </mxCell>
        <mxCell id="h81LgXNhhL_7eHp9-fu3-89" style="edgeStyle=orthogonalEdgeStyle;rounded=0;orthogonalLoop=1;jettySize=auto;html=1;endArrow=none;endFill=0;" edge="1" parent="1" source="h81LgXNhhL_7eHp9-fu3-88" target="h81LgXNhhL_7eHp9-fu3-5">
          <mxGeometry relative="1" as="geometry" />
        </mxCell>
        <mxCell id="h81LgXNhhL_7eHp9-fu3-88" value="mensagem" style="ellipse;whiteSpace=wrap;html=1;" vertex="1" parent="1">
          <mxGeometry x="-260" y="435" width="90" height="30" as="geometry" />
        </mxCell>
      </root>
    </mxGraphModel>
  </diagram>
</mxfile>
